ISO-10303-21;
HEADER;
FILE_DESCRIPTION(('ViewDefinition [CoordinationView]'),'2;1');
FILE_NAME('','2026-09-05T22:21:01',(''),(''),'IfcOpenShell 0.8.5-1c5b825','IfcOpenShell 0.8.5-1c5b825','');
FILE_SCHEMA(('IFC4'));
ENDSEC;
DATA;
#1=IFCPROJECT('0cUegDMUPDW9Nh8aN_wXIH',$,'BIMGuard Demo',$,$,$,$,(#6),$);
#2=IFCCARTESIANPOINT((0.,0.,0.));
#3=IFCDIRECTION((0.,0.,1.));
#4=IFCDIRECTION((1.,0.,0.));
#5=IFCAXIS2PLACEMENT3D(#2,#3,#4);
#6=IFCGEOMETRICREPRESENTATIONCONTEXT($,'Model',3,1.0000000000000001E-05,#5,$);
#7=IFCGEOMETRICREPRESENTATIONSUBCONTEXT('Body','Model',*,*,*,*,#6,$,.MODEL_VIEW.,$);
#8=IFCSITE('33nmiPBq1EzPM8D0apoI67',$,'Site',$,$,$,$,$,$,$,$,$,$,$);
#9=IFCBUILDING('28nas7wYvDugLvNDSMz2$E',$,'Building A',$,$,$,$,$,$,$,$,$);
#10=IFCBUILDINGSTOREY('3rLtYvhajAIgOpZKyG0Ui2',$,'Level 01',$,$,$,$,$,$,$);
#11=IFCRELAGGREGATES('1H7e0WrsPEI9_luIGktZ_J',$,$,$,#1,(#8));
#12=IFCRELAGGREGATES('08q5X_9VL5y9KMdb53tjzR',$,$,$,#8,(#9));
#13=IFCRELAGGREGATES('3uqJKo4zr3XRjKT1QZ_Zho',$,$,$,#9,(#10));
#14=IFCWALL('0m5SdDpyH5yA1SZ0_xayOo',$,'W-01',$,$,#25,#36,$,$);
#20=IFCRELCONTAINEDINSPATIALSTRUCTURE('0P8Xji2xj6Hu8o13L3ws4P',$,$,$,(#81,#103,#181,#14,#59,#37,#203,#155,#129),#10);
#21=IFCCARTESIANPOINT((0.,0.,0.));
#22=IFCDIRECTION((0.,0.,1.));
#23=IFCDIRECTION((1.,0.,0.));
#24=IFCAXIS2PLACEMENT3D(#21,#22,#23);
#25=IFCLOCALPLACEMENT($,#24);
#26=IFCCARTESIANPOINTLIST2D(((0.,0.),(0.,0.20000000000000001),(5.,0.20000000000000001),(5.,0.),(0.,0.)));
#27=IFCINDEXEDPOLYCURVE(#26,$,.F.);
#28=IFCDIRECTION((0.,0.,1.));
#29=IFCARBITRARYCLOSEDPROFILEDEF(.AREA.,$,#27);
#30=IFCCARTESIANPOINT((0.,0.,0.));
#31=IFCDIRECTION((0.,0.,1.));
#32=IFCDIRECTION((1.,0.,0.));
#33=IFCAXIS2PLACEMENT3D(#30,#31,#32);
#34=IFCEXTRUDEDAREASOLID(#29,#33,#28,3.);
#35=IFCSHAPEREPRESENTATION(#7,'Body','SweptSolid',(#34));
#36=IFCPRODUCTDEFINITIONSHAPE($,$,(#35));
#37=IFCWALL('35iQqgIC94ORpwasPMro_t',$,'W-02',$,$,#47,#58,$,$);
#43=IFCCARTESIANPOINT((10.,0.,0.));
#44=IFCDIRECTION((0.,0.,1.));
#45=IFCDIRECTION((1.,0.,0.));
#46=IFCAXIS2PLACEMENT3D(#43,#44,#45);
#47=IFCLOCALPLACEMENT($,#46);
#48=IFCCARTESIANPOINTLIST2D(((0.,0.),(0.,0.20000000000000001),(5.,0.20000000000000001),(5.,0.),(0.,0.)));
#49=IFCINDEXEDPOLYCURVE(#48,$,.F.);
#50=IFCDIRECTION((0.,0.,1.));
#51=IFCARBITRARYCLOSEDPROFILEDEF(.AREA.,$,#49);
#52=IFCCARTESIANPOINT((0.,0.,0.));
#53=IFCDIRECTION((0.,0.,1.));
#54=IFCDIRECTION((1.,0.,0.));
#55=IFCAXIS2PLACEMENT3D(#52,#53,#54);
#56=IFCEXTRUDEDAREASOLID(#51,#55,#50,3.);
#57=IFCSHAPEREPRESENTATION(#7,'Body','SweptSolid',(#56));
#58=IFCPRODUCTDEFINITIONSHAPE($,$,(#57));
#59=IFCWALL('29J2hLCxL1whoNVmRGdYsk',$,'W-03',$,$,#69,#80,$,$);
#65=IFCCARTESIANPOINT((10.,10.,0.));
#66=IFCDIRECTION((0.,0.,1.));
#67=IFCDIRECTION((1.,0.,0.));
#68=IFCAXIS2PLACEMENT3D(#65,#66,#67);
#69=IFCLOCALPLACEMENT($,#68);
#70=IFCCARTESIANPOINTLIST2D(((0.,0.),(0.,0.20000000000000001),(5.,0.20000000000000001),(5.,0.),(0.,0.)));
#71=IFCINDEXEDPOLYCURVE(#70,$,.F.);
#72=IFCDIRECTION((0.,0.,1.));
#73=IFCARBITRARYCLOSEDPROFILEDEF(.AREA.,$,#71);
#74=IFCCARTESIANPOINT((0.,0.,0.));
#75=IFCDIRECTION((0.,0.,1.));
#76=IFCDIRECTION((1.,0.,0.));
#77=IFCAXIS2PLACEMENT3D(#74,#75,#76);
#78=IFCEXTRUDEDAREASOLID(#73,#77,#72,3.);
#79=IFCSHAPEREPRESENTATION(#7,'Body','SweptSolid',(#78));
#80=IFCPRODUCTDEFINITIONSHAPE($,$,(#79));
#81=IFCWALL('0tUA1KKFHFfx4BH8xOUTSl',$,'W-04',$,$,#91,#102,$,$);
#87=IFCCARTESIANPOINT((0.,10.,0.));
#88=IFCDIRECTION((0.,0.,1.));
#89=IFCDIRECTION((1.,0.,0.));
#90=IFCAXIS2PLACEMENT3D(#87,#88,#89);
#91=IFCLOCALPLACEMENT($,#90);
#92=IFCCARTESIANPOINTLIST2D(((0.,0.),(0.,0.20000000000000001),(5.,0.20000000000000001),(5.,0.),(0.,0.)));
#93=IFCINDEXEDPOLYCURVE(#92,$,.F.);
#94=IFCDIRECTION((0.,0.,1.));
#95=IFCARBITRARYCLOSEDPROFILEDEF(.AREA.,$,#93);
#96=IFCCARTESIANPOINT((0.,0.,0.));
#97=IFCDIRECTION((0.,0.,1.));
#98=IFCDIRECTION((1.,0.,0.));
#99=IFCAXIS2PLACEMENT3D(#96,#97,#98);
#100=IFCEXTRUDEDAREASOLID(#95,#99,#94,3.);
#101=IFCSHAPEREPRESENTATION(#7,'Body','SweptSolid',(#100));
#102=IFCPRODUCTDEFINITIONSHAPE($,$,(#101));
#103=IFCDOOR('2NlT9JrF1CVvgIqtUAvz18',$,'D-101',$,$,#113,#124,'D-101',2.1000000000000001,0.90000000000000002,$,$,$);
#109=IFCCARTESIANPOINT((2.,0.,0.));
#110=IFCDIRECTION((0.,0.,1.));
#111=IFCDIRECTION((1.,0.,0.));
#112=IFCAXIS2PLACEMENT3D(#109,#110,#111);
#113=IFCLOCALPLACEMENT($,#112);
#114=IFCCARTESIANPOINTLIST2D(((0.,0.),(0.,0.050000000000000003),(0.90000000000000002,0.050000000000000003),(0.90000000000000002,0.),(0.,0.)));
#115=IFCINDEXEDPOLYCURVE(#114,$,.F.);
#116=IFCDIRECTION((0.,0.,1.));
#117=IFCARBITRARYCLOSEDPROFILEDEF(.AREA.,$,#115);
#118=IFCCARTESIANPOINT((0.,0.,0.));
#119=IFCDIRECTION((0.,0.,1.));
#120=IFCDIRECTION((1.,0.,0.));
#121=IFCAXIS2PLACEMENT3D(#118,#119,#120);
#122=IFCEXTRUDEDAREASOLID(#117,#121,#116,2.1000000000000001);
#123=IFCSHAPEREPRESENTATION(#7,'Body','SweptSolid',(#122));
#124=IFCPRODUCTDEFINITIONSHAPE($,$,(#123));
#125=IFCPROPERTYSET('2NOmgZSvj4VOyCQCrfN_Qs',$,'Pset_DoorCommon',$,(#127,#128));
#126=IFCRELDEFINESBYPROPERTIES('3nsJFqgeLAGhgN1ZccLkvX',$,$,$,(#103),#125);
#127=IFCPROPERTYSINGLEVALUE('FireRating',$,IFCLABEL('60min'),$);
#128=IFCPROPERTYSINGLEVALUE('IsExternal',$,IFCBOOLEAN(.F.),$);
#129=IFCDOOR('3MIoBr4JHDH9ByTLLdfVzy',$,'D-102',$,$,#139,#150,'D-102',2.1000000000000001,0.68000000000000005,$,$,$);
#135=IFCCARTESIANPOINT((8.,0.,0.));
#136=IFCDIRECTION((0.,0.,1.));
#137=IFCDIRECTION((1.,0.,0.));
#138=IFCAXIS2PLACEMENT3D(#135,#136,#137);
#139=IFCLOCALPLACEMENT($,#138);
#140=IFCCARTESIANPOINTLIST2D(((0.,0.),(0.,0.050000000000000003),(0.68000000000000005,0.050000000000000003),(0.68000000000000005,0.),(0.,0.)));
#141=IFCINDEXEDPOLYCURVE(#140,$,.F.);
#142=IFCDIRECTION((0.,0.,1.));
#143=IFCARBITRARYCLOSEDPROFILEDEF(.AREA.,$,#141);
#144=IFCCARTESIANPOINT((0.,0.,0.));
#145=IFCDIRECTION((0.,0.,1.));
#146=IFCDIRECTION((1.,0.,0.));
#147=IFCAXIS2PLACEMENT3D(#144,#145,#146);
#148=IFCEXTRUDEDAREASOLID(#143,#147,#142,2.1000000000000001);
#149=IFCSHAPEREPRESENTATION(#7,'Body','SweptSolid',(#148));
#150=IFCPRODUCTDEFINITIONSHAPE($,$,(#149));
#151=IFCPROPERTYSET('0intt0uJD5vw$sMFO9LVhr',$,'Pset_DoorCommon',$,(#153,#154));
#152=IFCRELDEFINESBYPROPERTIES('1wcM35ZFzBtQRu2s0SbKB_',$,$,$,(#129),#151);
#153=IFCPROPERTYSINGLEVALUE('FireRating',$,IFCLABEL('60min'),$);
#154=IFCPROPERTYSINGLEVALUE('IsExternal',$,IFCBOOLEAN(.F.),$);
#155=IFCDOOR('1dMK$oDEX78gvsmMjbLxZz',$,'D-103',$,$,#165,#176,'D-103',2.1000000000000001,0.75,$,$,$);
#161=IFCCARTESIANPOINT((5.,10.,0.));
#162=IFCDIRECTION((0.,0.,1.));
#163=IFCDIRECTION((1.,0.,0.));
#164=IFCAXIS2PLACEMENT3D(#161,#162,#163);
#165=IFCLOCALPLACEMENT($,#164);
#166=IFCCARTESIANPOINTLIST2D(((0.,0.),(0.,0.050000000000000003),(0.75,0.050000000000000003),(0.75,0.),(0.,0.)));
#167=IFCINDEXEDPOLYCURVE(#166,$,.F.);
#168=IFCDIRECTION((0.,0.,1.));
#169=IFCARBITRARYCLOSEDPROFILEDEF(.AREA.,$,#167);
#170=IFCCARTESIANPOINT((0.,0.,0.));
#171=IFCDIRECTION((0.,0.,1.));
#172=IFCDIRECTION((1.,0.,0.));
#173=IFCAXIS2PLACEMENT3D(#170,#171,#172);
#174=IFCEXTRUDEDAREASOLID(#169,#173,#168,2.1000000000000001);
#175=IFCSHAPEREPRESENTATION(#7,'Body','SweptSolid',(#174));
#176=IFCPRODUCTDEFINITIONSHAPE($,$,(#175));
#177=IFCPROPERTYSET('26agnAKJj0lgNRSk7rbg4v',$,'Pset_DoorCommon',$,(#179,#180));
#178=IFCRELDEFINESBYPROPERTIES('348t7EM$P4Y8gGzGyNArtS',$,$,$,(#155),#177);
#179=IFCPROPERTYSINGLEVALUE('FireRating',$,IFCLABEL('60min'),$);
#180=IFCPROPERTYSINGLEVALUE('IsExternal',$,IFCBOOLEAN(.F.),$);
#181=IFCBEAM('2hfgv$2RX1CBljJAZSRpW6',$,'B-017',$,$,#191,#202,'B-017',$);
#187=IFCCARTESIANPOINT((2.,2.,2.));
#188=IFCDIRECTION((0.,0.,1.));
#189=IFCDIRECTION((1.,0.,0.));
#190=IFCAXIS2PLACEMENT3D(#187,#188,#189);
#191=IFCLOCALPLACEMENT($,#190);
#192=IFCCARTESIANPOINTLIST2D(((0.,0.),(0.,0.29999999999999999),(5.,0.29999999999999999),(5.,0.),(0.,0.)));
#193=IFCINDEXEDPOLYCURVE(#192,$,.F.);
#194=IFCDIRECTION((0.,0.,1.));
#195=IFCARBITRARYCLOSEDPROFILEDEF(.AREA.,$,#193);
#196=IFCCARTESIANPOINT((0.,0.,0.));
#197=IFCDIRECTION((0.,0.,1.));
#198=IFCDIRECTION((1.,0.,0.));
#199=IFCAXIS2PLACEMENT3D(#196,#197,#198);
#200=IFCEXTRUDEDAREASOLID(#195,#199,#194,0.40000000000000002);
#201=IFCSHAPEREPRESENTATION(#7,'Body','SweptSolid',(#200));
#202=IFCPRODUCTDEFINITIONSHAPE($,$,(#201));
#203=IFCPIPESEGMENT('2out3k_UP6CvWrid2I981b',$,'P-042',$,$,#213,#224,'P-042',$);
#209=IFCCARTESIANPOINT((2.5,2.,2.1000000000000001));
#210=IFCDIRECTION((0.,0.,1.));
#211=IFCDIRECTION((1.,0.,0.));
#212=IFCAXIS2PLACEMENT3D(#209,#210,#211);
#213=IFCLOCALPLACEMENT($,#212);
#214=IFCCARTESIANPOINTLIST2D(((0.,0.),(0.,0.20000000000000001),(4.,0.20000000000000001),(4.,0.),(0.,0.)));
#215=IFCINDEXEDPOLYCURVE(#214,$,.F.);
#216=IFCDIRECTION((0.,0.,1.));
#217=IFCARBITRARYCLOSEDPROFILEDEF(.AREA.,$,#215);
#218=IFCCARTESIANPOINT((0.,0.,0.));
#219=IFCDIRECTION((0.,0.,1.));
#220=IFCDIRECTION((1.,0.,0.));
#221=IFCAXIS2PLACEMENT3D(#218,#219,#220);
#222=IFCEXTRUDEDAREASOLID(#217,#221,#216,0.20000000000000001);
#223=IFCSHAPEREPRESENTATION(#7,'Body','SweptSolid',(#222));
#224=IFCPRODUCTDEFINITIONSHAPE($,$,(#223));
ENDSEC;
END-ISO-10303-21;
